<?xml version="1.0" encoding="UTF-8" standalone="no"?>
<svg
   width="16"
   height="16"
   viewBox="0 0 16 16"
   fill="currentColor"
   version="1.1"
   id="svg1"
   sodipodi:docname="dpr.svg"
   inkscape:version="1.4.2 (f4327f4, 2025-05-13)"
   xmlns:inkscape="http://www.inkscape.org/namespaces/inkscape"
   xmlns:sodipodi="http://sodipodi.sourceforge.net/DTD/sodipodi-0.dtd"
   xmlns="http://www.w3.org/2000/svg"
   xmlns:svg="http://www.w3.org/2000/svg">
  <defs
     id="defs1" />
  <sodipodi:namedview
     id="namedview1"
     pagecolor="#ffffff"
     bordercolor="#666666"
     borderopacity="1.0"
     inkscape:showpageshadow="2"
     inkscape:pageopacity="0.0"
     inkscape:pagecheckerboard="0"
     inkscape:deskcolor="#d1d1d1"
     inkscape:zoom="72.9375"
     inkscape:cx="7.9931448"
     inkscape:cy="8"
     inkscape:window-width="2560"
     inkscape:window-height="1369"
     inkscape:window-x="-8"
     inkscape:window-y="1432"
     inkscape:window-maximized="1"
     inkscape:current-layer="svg1" />
  <path
     fill-rule="evenodd"
     clip-rule="evenodd"
     d="M14.491 1c-3.598.004-6.654 1.983-8.835 4H1.5l-.5.5v3l.147.354.991.991.001.009 4 4 .009.001.999.999L7.5 15h3l.5-.5v-4.154c2.019-2.178 3.996-5.233 3.992-8.846l-.501-.5zM2 6h2.643a23.828 23.828 0 0 0-2.225 2.71L2 8.294V6zm5.7 8l-.42-.423a23.59 23.59 0 0 0 2.715-2.216V14H7.7zm-1.143-1.144L3.136 9.437C4.128 8 8.379 2.355 13.978 2.016c-.326 5.612-5.987 9.853-7.421 10.84zM4 15v-1H2v-2H1v3h3zm6.748-7.667a1.5 1.5 0 1 0-2.496-1.666 1.5 1.5 0 0 0 2.495 1.666z"
     id="path1"
     style="fill:#ff5555" />
</svg>
