<?xml version="1.0" encoding="UTF-8" standalone="no"?>
<svg
   width="16"
   height="16"
   viewBox="0 0 16 16"
   fill="currentColor"
   version="1.1"
   id="svg1"
   sodipodi:docname="pas.svg"
   inkscape:version="1.4.2 (f4327f4, 2025-05-13)"
   xmlns:inkscape="http://www.inkscape.org/namespaces/inkscape"
   xmlns:sodipodi="http://sodipodi.sourceforge.net/DTD/sodipodi-0.dtd"
   xmlns="http://www.w3.org/2000/svg"
   xmlns:svg="http://www.w3.org/2000/svg">
  <defs
     id="defs1" />
  <sodipodi:namedview
     id="namedview1"
     pagecolor="#ffffff"
     bordercolor="#666666"
     borderopacity="1.0"
     inkscape:showpageshadow="2"
     inkscape:pageopacity="0.0"
     inkscape:pagecheckerboard="0"
     inkscape:deskcolor="#d1d1d1"
     inkscape:zoom="72.9375"
     inkscape:cx="7.9931448"
     inkscape:cy="8"
     inkscape:window-width="2560"
     inkscape:window-height="1369"
     inkscape:window-x="-8"
     inkscape:window-y="1432"
     inkscape:window-maximized="1"
     inkscape:current-layer="svg1" />
  <path
     d="M13.85 4.44002L10.571 1.13902L10.22 0.999023H2.5L2 1.49902V14.499L2.5 14.999H13.5L14 14.499V4.80002L13.85 4.44002ZM13 14H3V2.00002H9V5.50002L9.5 6.00002H13V14ZM10 5.00002V2.00002L13 5.00002H10ZM6.854 7.85402L5.208 9.50002L6.854 11.146L6.147 11.853L4.147 9.85302V9.14602L6.147 7.14602L6.854 7.85402ZM9.146 7.85402L9.853 7.14702L11.853 9.14702V9.85402L9.853 11.854L9.146 11.147L10.792 9.50102L9.146 7.85402Z"
     id="path1"
     style="fill:#00ccff" />
</svg>
