<?xml version="1.0" encoding="UTF-8" standalone="no"?>
<!-- Created with Inkscape (http://www.inkscape.org/) -->

<svg
   version="1.1"
   id="svg1"
   width="1024"
   height="1024"
   viewBox="0 0 1024 1024"
   sodipodi:docname="DelphiHelmet.svg"
   inkscape:version="1.4.2 (f4327f4, 2025-05-13)"
   xmlns:inkscape="http://www.inkscape.org/namespaces/inkscape"
   xmlns:sodipodi="http://sodipodi.sourceforge.net/DTD/sodipodi-0.dtd"
   xmlns="http://www.w3.org/2000/svg"
   xmlns:svg="http://www.w3.org/2000/svg">
  <defs
     id="defs1" />
  <sodipodi:namedview
     id="namedview1"
     pagecolor="#ffffff"
     bordercolor="#666666"
     borderopacity="1.0"
     inkscape:showpageshadow="2"
     inkscape:pageopacity="0.0"
     inkscape:pagecheckerboard="0"
     inkscape:deskcolor="#d1d1d1"
     inkscape:zoom="1.1396484"
     inkscape:cx="407.1431"
     inkscape:cy="295.2665"
     inkscape:window-width="2560"
     inkscape:window-height="1369"
     inkscape:window-x="2552"
     inkscape:window-y="1443"
     inkscape:window-maximized="1"
     inkscape:current-layer="g1" />
  <g
     inkscape:groupmode="layer"
     inkscape:label="Image"
     id="g1">
    <path
       id="path9"
       style="fill:#9c6c20;fill-opacity:1;stroke-width:0.903788"
       d="M 520.35742 394.2832 L 513.20898 395.33008 C 490.88861 398.59374 438.67685 417.70743 348.55078 455.60938 C 317.3541 468.72893 292.4775 481.43889 283.24609 488.95898 C 283.09963 489.22116 282.97276 489.49632 282.86719 489.78711 C 282.32561 491.46657 282.83226 493.248 283.02344 494.94727 C 284.3167 501.90424 286.03078 508.77662 287.66406 515.66016 C 291.69961 532.2025 295.96748 548.68535 300.22852 565.17188 C 302.65516 574.70005 305.21423 584.1974 307.35742 593.79492 C 307.55163 594.68787 307.77978 595.75779 307.92773 596.54688 C 308.15933 597.79225 308.36086 598.98546 308.53125 600.29688 C 309.12819 604.297 308.80695 608.34188 308.58984 612.35742 C 308.28871 617.61891 307.86357 622.98312 307.28906 628.28516 C 306.94406 631.40905 306.52032 634.81751 306.05859 637.91797 C 305.82636 639.55068 305.53209 641.31478 305.28125 642.85742 C 303.38518 653.99423 300.69886 664.98703 297.43945 675.80078 C 296.75352 678.13062 296.02757 680.44822 295.2793 682.75781 C 293.56789 688.56494 291.5966 694.83122 289.31641 701.74414 C 287.58999 706.97816 286.01885 712.02606 284.86328 715.98242 C 284.80302 716.43612 284.75824 716.89228 284.73438 717.35156 C 284.59945 718.97492 285.2084 720.52582 286.05859 721.87891 C 289.5058 727.3137 293.40298 732.44841 297.27344 737.58594 C 311.10478 755.65302 325.38096 773.37913 340.08203 790.74609 C 346.22017 798.04922 352.53999 805.19942 359.09961 812.12695 C 370.04988 823.70516 381.24336 835.05239 392.48438 846.34766 C 406.36692 860.22555 420.33423 874.02075 434.58398 887.52344 C 438.67908 891.34437 442.75575 895.19865 447.05469 898.78906 C 449.68913 898.65981 451.51258 898.10156 451.74414 898.10156 C 452.44595 898.10156 452.60693 893.85902 452.37109 889.69727 C 443.91011 740.39295 437.69622 644.28755 437.50781 641.84961 L 436.8418 633.23047 L 418.29883 627.04102 C 388.64966 616.61736 380.238 609.41266 369.52539 597.98438 C 363.61241 593.27084 358.33317 587.78573 354.20508 581.42578 C 354.12676 581.30808 354.04783 581.18824 353.96875 581.06641 C 346.80646 572.69109 340.60207 563.19524 339.02734 550.29102 C 338.78533 548.30778 340.95561 544.53257 341.9082 542.20312 C 341.72058 541.1275 341.31469 540.12366 340.75391 539.20898 C 337.81047 537.36893 331.3373 534.07919 327.0625 531.89258 C 321.59435 529.09515 315.422 529.54229 315.76367 529.08789 C 317.01639 527.42186 347.80975 508.5235 352.7207 507.72656 C 355.47145 507.28018 356.45575 508.64943 388.77734 521.26953 C 409.8332 529.49085 437.55106 540.27231 450.37305 545.22852 C 463.19504 550.18472 475.33164 555.32794 477.3418 556.6582 C 484.2904 561.25656 486.21732 570.58355 484.54102 591.48242 C 484.00276 598.19303 481.68151 619.81628 479.38281 639.53516 L 475.20508 675.38867 L 479.82422 682.07227 C 485.92303 690.89451 498.4387 706.49988 506.10742 715.24023 C 506.70044 715.86811 507.3005 716.4911 507.9082 717.10547 C 509.40078 718.93676 512.06751 719.73337 514.27734 718.81445 C 515.18568 718.39367 515.99471 717.82553 516.74023 717.17578 C 526.0444 706.50888 547.23623 680.16469 548.37695 677.43945 C 550.08893 673.34949 549.8322 670.02777 544.45898 626.73047 C 540.29256 593.15752 538.83547 573.40754 539.9668 565.86328 C 540.69862 560.98323 543.76103 556.90608 548.51562 554.48047 C 552.70036 552.34558 658.16889 512.77076 666.43359 510.23438 C 672.69737 508.31207 673.12555 509.23088 674.87109 512.08008 C 675.15814 512.17636 675.43987 512.29552 675.7168 512.44141 C 680.91497 515.61602 686.03078 518.92869 691.25391 522.06445 C 694.60711 524.16957 698.10527 526.09019 701.45117 528.25781 C 699.71543 529.2054 697.91466 530.02571 696.12891 530.87305 C 692.99725 532.44004 689.68941 533.76612 686.88086 535.89844 C 684.42132 537.69822 682.84731 540.43398 681.96875 543.30859 C 680.56594 548.05654 679.98217 552.99799 678.69922 557.77734 C 676.28106 567.47356 672.33186 576.87212 666.39062 584.95117 C 659.1427 594.9339 649.14969 602.60661 638.41797 608.52539 C 624.50115 616.17032 609.39039 621.34573 594.22852 625.76172 C 587.7146 630.64434 581.86894 633.33898 580.69141 634.40039 C 580.2007 634.8427 579.75671 636.15747 579.35156 638.20312 C 578.81021 651.2624 578.3167 664.3241 577.80273 677.38477 C 576.72579 704.63913 575.74416 731.89757 574.62891 759.15039 C 574.4151 764.05253 574.19517 768.95443 573.96875 773.85547 C 573.82367 799.72193 573.57748 822.07393 570.35547 858.96875 C 568.83264 876.4065 569.34033 893.07026 569.76562 899.48047 C 569.83958 899.53734 569.91713 899.59167 569.99609 899.64453 C 571.01546 900.40444 572.27103 900.56802 573.46875 900.32227 C 575.21219 899.08592 577.55998 897.30041 580.38086 895.07227 C 584.86694 890.93336 589.3584 886.80007 593.85938 882.67969 C 623.70961 855.50901 651.9562 826.58379 678.57617 796.24414 C 698.13384 773.91498 716.85389 750.81521 733.89258 726.49609 C 735.59601 723.96217 737.51929 721.41483 738.15625 718.36523 C 738.4192 717.17597 738.48375 715.97744 738.41211 714.7832 C 737.44369 711.36708 736.16395 707.23268 734.76562 703.07227 C 732.3151 695.78124 730.22098 689.17618 728.41406 682.94141 C 728.30042 682.58491 728.18812 682.22962 728.07617 681.875 C 726.24432 676.073 724.53917 670.1096 723.08789 664.27539 C 720.81605 655.08735 719.11587 645.7646 717.84961 636.38672 C 717.03786 630.28576 716.3362 624.26021 715.79688 618.14648 C 715.71144 617.1863 715.64058 616.05247 715.58008 615.20312 C 715.53842 614.44687 715.49153 613.49193 715.45312 612.85938 C 715.07151 604.96075 716.17415 596.95916 717.71094 589.30469 C 719.7481 579.40749 722.29542 569.59632 724.89258 559.86133 C 728.5984 545.85051 732.70343 531.8834 736.04102 517.73633 C 737.69575 510.46152 739.37009 503.17212 740.31445 495.76367 C 740.53567 493.40566 740.98893 490.93991 740.25195 488.62891 C 740.20574 488.46291 740.14815 488.30477 740.08203 488.15234 C 739.93425 488.03472 739.77984 487.91203 739.61719 487.7832 C 722.36649 474.12041 694.49765 461.917 570.86719 413.90039 L 520.35742 394.2832 z " />
    <path
       style="fill:#b0161c;fill-opacity:1;stroke-width:0.903788"
       d="m 508.44932,329.68736 c -5.20784,-3.48062 -31.69186,-28.73088 -35.45268,-33.80112 -2.12938,-2.87076 -4.71226,-7.46646 -5.73975,-10.21265 -3.98174,-10.64218 -31.3399,-115.66633 -38.52666,-147.89852 -2.77836,-12.4607 -3.16622,-15.35392 -2.21242,-16.50316 3.35094,-4.03764 69.56994,-37.748559 77.2715,-39.33756 10.89884,-2.248665 20.04227,0.267344 42.94866,11.818227 23.30515,11.751973 53.55767,28.370543 54.57139,29.977643 0.67008,1.06228 0.66558,2.53109 -0.0151,4.93959 -0.53283,1.88526 -9.14864,33.52389 -19.14628,70.30803 -9.99763,36.78415 -19.91963,73.15 -22.04888,80.81301 l -3.87133,13.9327 -18.12078,16.52369 c -9.96643,9.088 -19.14938,17.33274 -20.40655,18.32165 -3.49611,2.75003 -6.30226,3.0893 -9.25109,1.11847 z"
       id="path8" />
    <path
       id="rect9"
       style="fill:#dc1621;fill-opacity:1"
       d="m 509.01532,81.191406 c -2.50628,-0.03802 -4.91647,0.225673 -7.41992,0.742188 -7.70156,1.589001 -73.92054,35.300246 -77.27148,39.337886 -0.9538,1.14924 -0.56547,4.04321 2.21289,16.50391 7.18676,32.23219 34.5456,137.25626 38.52734,147.89844 1.02749,2.74619 3.6089,7.34213 5.73828,10.21289 3.76082,5.07024 30.24529,30.32016 35.45313,33.80078 1.76033,1.1765 3.47087,1.53042 5.30664,1.03906 V 81.332031 c -0.8636,-0.08195 -1.71145,-0.127952 -2.54688,-0.140625 z" />
    <path
       style="fill:#9d6b21;fill-opacity:1;stroke-width:0.903788"
       d="m 692.41689,436.35215 c -34.58623,-14.53279 -121.20505,-47.72429 -162.9077,-62.42468 -9.56885,-3.37306 -17.39749,-6.37294 -17.39697,-6.66638 0.002,-1.18708 10.19903,-11.00525 33.18611,-31.95333 30.36603,-27.67251 32.85802,-30.3591 34.86884,-37.59161 1.86793,-6.7186 2.31602,-6.80767 13.89082,-2.76138 57.495,20.09897 103.48552,73.24578 119.20114,137.74927 2.63895,10.83132 2.71107,12.23289 0.62271,12.10201 -0.8699,-0.0545 -10.52912,-3.85878 -21.46495,-8.4539 z"
       id="path7" />
    <path
       style="fill:#e4a735;fill-opacity:1;stroke-width:0.903788"
       d="m 308.16772,444.2376 c 7.38958,-32.8237 15.95069,-55.81469 26.83177,-72.05712 12.90046,-19.2568 40.82756,-47.32963 60.17113,-60.48514 12.23033,-8.31781 40.69169,-21.73371 44.84553,-21.13895 1.41374,0.20244 2.3713,1.85449 4.14295,7.14779 1.26733,3.78647 3.45872,8.26022 4.86976,9.94166 2.8699,3.41984 21.63388,20.87773 46.4097,43.17928 9.05291,8.14883 16.45985,14.97558 16.45985,15.17055 0,0.65092 -8.36573,3.97892 -37.05529,14.74108 -46.85148,17.57516 -85.8702,32.69819 -127.30675,49.34203 -21.5531,8.65724 -39.30833,15.74045 -39.45608,15.74045 -0.14775,0 -0.1084,-0.71173 0.0874,-1.58163 z"
       id="path6" />
    <path
       id="path10"
       style="fill:#e4a735;fill-opacity:1;stroke-width:0.903788"
       d="M 514.63281 395.12109 L 513.20898 395.33008 C 490.88861 398.59374 438.67685 417.70743 348.55078 455.60938 C 317.3541 468.72893 292.4775 481.43889 283.24609 488.95898 C 283.09963 489.22116 282.97276 489.49632 282.86719 489.78711 C 282.32561 491.46657 282.83226 493.248 283.02344 494.94727 C 284.3167 501.90424 286.03078 508.77662 287.66406 515.66016 C 291.69961 532.2025 295.96748 548.68534 300.22852 565.17188 C 302.65516 574.70005 305.21423 584.1974 307.35742 593.79492 C 307.55163 594.68787 307.77978 595.75778 307.92773 596.54688 C 308.15933 597.79224 308.36086 598.98546 308.53125 600.29688 C 309.12819 604.297 308.80695 608.34188 308.58984 612.35742 C 308.28871 617.61891 307.86357 622.98312 307.28906 628.28516 C 306.94406 631.40905 306.52032 634.81751 306.05859 637.91797 C 305.82636 639.55068 305.53209 641.31478 305.28125 642.85742 C 303.38518 653.99423 300.69886 664.98703 297.43945 675.80078 C 296.75352 678.13062 296.02757 680.44822 295.2793 682.75781 C 293.56789 688.56494 291.5966 694.83122 289.31641 701.74414 C 287.58999 706.97816 286.01885 712.02606 284.86328 715.98242 C 284.80302 716.43612 284.75823 716.89228 284.73438 717.35156 C 284.59945 718.97492 285.2084 720.52582 286.05859 721.87891 C 289.5058 727.3137 293.40298 732.44841 297.27344 737.58594 C 311.10478 755.65302 325.38096 773.37913 340.08203 790.74609 C 346.22017 798.04922 352.53999 805.19942 359.09961 812.12695 C 370.04988 823.70516 381.24336 835.05239 392.48438 846.34766 C 406.36692 860.22555 420.33423 874.02075 434.58398 887.52344 C 438.67908 891.34437 442.75575 895.19865 447.05469 898.78906 C 449.68913 898.65981 451.51258 898.10156 451.74414 898.10156 C 452.44595 898.10156 452.60693 893.85902 452.37109 889.69727 C 443.91011 740.39295 437.69622 644.28755 437.50781 641.84961 L 436.8418 633.23047 L 418.29883 627.04102 C 388.64966 616.61736 380.238 609.41265 369.52539 597.98438 C 363.61241 593.27084 358.33317 587.78573 354.20508 581.42578 C 354.12676 581.30808 354.04783 581.18824 353.96875 581.06641 C 346.80646 572.69109 340.60207 563.19524 339.02734 550.29102 C 338.78533 548.30778 340.95561 544.53257 341.9082 542.20312 C 341.72058 541.12751 341.31469 540.12366 340.75391 539.20898 C 337.81047 537.36893 331.3373 534.07919 327.0625 531.89258 C 321.59435 529.09515 315.422 529.54229 315.76367 529.08789 C 317.01639 527.42186 347.80975 508.5235 352.7207 507.72656 C 355.47145 507.28018 356.45575 508.64943 388.77734 521.26953 C 409.8332 529.49085 437.55106 540.27231 450.37305 545.22852 C 463.19504 550.18472 475.33164 555.32794 477.3418 556.6582 C 484.2904 561.25656 486.21732 570.58355 484.54102 591.48242 C 484.00276 598.19303 481.68151 619.81628 479.38281 639.53516 L 475.20508 675.38867 L 479.82422 682.07227 C 485.92303 690.89451 498.4387 706.49988 506.10742 715.24023 C 506.70044 715.86811 507.3005 716.4911 507.9082 717.10547 C 509.40078 718.93676 512.06751 719.73337 514.27734 718.81445 C 514.3974 718.75884 514.51614 718.70124 514.63281 718.64062 L 514.63281 395.12109 z " />
    <path
       style="fill:#000000"
       d="m 476.91524,955.7184 c -1.42161,-1.22012 -7.35184,-6.15404 -13.17827,-10.96426 C 389.05572,883.09831 315.01518,804.0302 264.97908,732.5 c -9.79314,-14 -9.79314,-14 -4.87223,-24 C 275.61863,676.97777 286,635.93516 286,606.13177 286,595.701 277.73843,559.24333 262.95331,504.4285 259.67899,492.28917 257,481.47292 257,480.39239 c 0,-1.68555 6.21949,-6.81739 21.89602,-18.06691 0.21781,-0.1563 1.63202,-7.60597 3.14268,-16.55483 14.75439,-87.40172 64.50615,-149.02467 142.7113,-176.76344 5.0875,-1.80449 9.25,-3.62336 9.25,-4.04192 0,-0.41856 -8.54093,-34.66948 -18.97984,-76.11316 -10.43892,-41.44367 -19.16347,-76.10783 -19.3879,-77.03147 -0.32081,-1.32027 8.49463,-6.33387 41.22984,-23.448608 22.90084,-11.973103 49.00204,-25.710881 58.00265,-30.528395 16.36474,-8.759117 16.36474,-8.759117 28.5,-2.394787 38.61153,20.249803 104.17824,54.80338 104.42777,55.0333 0.16089,0.14825 -1.50111,7.41291 -3.69334,16.14369 -2.19223,8.73078 -10.55221,42.87414 -18.57773,75.87414 -8.02553,33 -14.81078,60.72271 -15.07835,61.60603 -0.38318,1.26499 1.80087,2.40663 10.28521,5.37625 76.88489,26.91063 133.57037,100.78064 142.83628,186.13792 0.66437,6.1202 0.66437,6.1202 12.01605,14.5 6.24342,4.60889 11.3669,8.99923 11.38552,9.75631 0.0458,1.86444 -10.79766,46.41754 -18.04045,74.12349 -9.48343,36.27707 -11.19499,45.69419 -10.4506,57.5 2.1551,34.17923 9.85846,64.56959 23.76998,93.77453 6.08504,12.77453 6.08504,12.77453 -0.4951,22.5 -47.53516,70.25709 -132.45556,160.86286 -209.92138,223.97547 -9.92937,8.08961 -10.2628,8.0544 -9.46832,-1 0.76971,-8.77193 2.85174,-80.8713 2.34984,-81.3732 -0.19535,-0.19535 -7.52254,2.85456 -16.28265,6.77757 -19.12304,8.56381 -14.78099,8.56498 -33.66325,-0.009 C 486.10956,872.21538 478.84685,869 478.62489,869 c -0.22196,0 -0.22584,3.7125 -0.009,8.25 0.21722,4.5375 0.84779,20.625 1.40126,35.75 0.55347,15.125 1.29052,31.4375 1.63788,36.25 0.70132,9.71653 0.0616,10.58953 -4.74016,6.4684 z M 451.56988,884.75 c -0.85129,-16.42362 -5.67548,-98.47701 -9.01009,-153.25 -1.37286,-22.55 -3.19346,-53.79553 -4.04578,-69.4345 -0.85233,-15.63898 -1.65416,-28.52991 -1.78185,-28.64651 -0.12769,-0.1166 -8.55716,-2.98434 -18.73216,-6.37274 -53.51112,-17.81991 -74.98467,-39.43323 -79.58605,-80.10409 -0.68587,-6.06222 -0.68587,-6.06222 -12.23929,-11.85505 -11.42467,-5.72827 -11.52624,-5.80988 -9.11404,-7.3231 37.96442,-23.81581 34.20316,-22.22618 43.71808,-18.47664 30.82387,12.14677 93.37946,36.46129 107.4713,41.77265 20.35317,7.67133 20.68929,10.30495 11.2254,87.95536 -1.91147,15.68346 -3.46951,29.85846 -3.46231,31.5 0.0118,2.6852 24.57358,34.32327 34.41109,44.32493 2.3019,2.34031 2.3019,2.34031 13.14566,-11 5.96406,-7.33717 14.19024,-17.31788 18.28038,-22.17935 8.71323,-10.35639 8.5536,-7.22401 2.73468,-53.66096 -9.00292,-71.84642 -9.283,-70.1183 12.682,-78.25062 10.02821,-3.71284 40.04723,-14.99967 66.70895,-25.08184 48.47584,-18.33121 48.47584,-18.33121 56.5,-13.17506 4.41328,2.83588 12.41165,7.76565 17.77415,10.95504 11.99711,7.13538 12.01497,6.92036 -1.09335,13.1654 -10.732,5.11291 -10.732,5.11291 -13.32775,18.23812 -7.78562,39.36749 -32.03572,60.3385 -88.5267,76.55618 -11.8022,3.38822 -11.8022,3.38822 -12.03471,9.2405 -0.76789,19.32783 -3.41734,87.96482 -4.279,110.85228 -0.98766,26.23448 -3.75297,80.23761 -6.4008,125 -1.51814,25.66463 -1.92099,23.8727 4.1118,18.28977 2.64028,-2.4434 10.87551,-10.00724 18.30051,-16.80853 50.46353,-46.22453 102.27459,-104.26382 135.25603,-151.51522 5.60772,-8.03398 5.60772,-8.03398 -0.43445,-25 -10.60027,-29.76485 -14.78171,-48.1754 -17.78864,-78.32197 -1.98737,-19.92483 -0.40137,-28.88611 14.9807,-84.64405 6.80161,-24.65492 10.93107,-45.81935 9.20236,-47.16411 C 715.3945,474.13895 695.08088,465.07334 577.5,419.50377 553.85,410.338 529.38108,400.84295 523.12463,398.40366 511.1849,393.74857 453.47573,414.05867 332.5,465.49187 c -16.14607,6.86455 -43.56089,22.56156 -45.83765,26.24545 -0.77023,1.24625 4.24035,22.43815 16.45968,69.61504 C 313.2617,600.5 313.2617,600.5 312.60266,612.5 c -1.58661,28.88949 -6.09414,50.93592 -16.7204,81.77982 -6.12942,17.79131 -7.76967,23.65896 -7.04586,25.20501 3.37728,7.21379 42.47078,56.51768 64.39252,81.21046 C 374.46232,824.61273 448.76079,898 451.7418,898 c 0.28317,0 0.20581,-5.9625 -0.17192,-13.25 z M 372.5,419.4976 c 31.3564,-12.45905 75.4679,-29.3406 116.37175,-44.53566 17.35994,-6.44891 22.04367,-8.55168 20.90722,-9.38633 -2.99471,-2.19943 -51.52048,-46.27615 -57.86125,-52.55628 -5.97675,-5.9196 -6.748,-7.16328 -8.38376,-13.51933 -2.49378,-9.69001 -1.66949,-9.5777 -18.24187,-2.48555 -25.16492,10.76932 -36.60095,18.56508 -58.65706,39.98555 -33.60848,32.63992 -44.66465,53.44623 -56.15994,105.68586 -0.44034,2.0011 0.85051,1.63406 15.27196,-4.34247 C 334.41117,434.7528 355.45,426.2722 372.5,419.4976 Z M 711.79918,434.75 C 698.0317,370.85244 652.66176,316.90049 596,297.04667 c -14.45152,-5.06369 -13.29179,-5.29078 -15.44864,3.02507 -1.83417,7.07173 -1.83417,7.07173 -35.2294,37.23778 -33.39523,30.16606 -33.39523,30.16606 -27.6086,32.05845 34.82722,11.38947 149.12821,55.08353 185.78664,71.02101 11.01571,4.78915 10.60602,5.06751 8.29918,-5.63898 z M 533.61188,311.40052 C 545.10035,301.1708 554.83761,292.21055 555.25025,291.48886 555.9835,290.20643 571.67667,232.92471 587.986,172 c 4.49061,-16.775 9.20302,-33.98343 10.47203,-38.24096 2.68601,-9.01156 4.54042,-6.98813 -16.95803,-18.50365 -72.83215,-39.012114 -66.13686,-38.134822 -111.5,-14.61 -48.92108,25.36994 -43.2559,21.11026 -41.03525,30.85461 1.00272,4.4 3.4467,15.425 5.43107,24.5 1.98437,9.075 7.7113,31.8 12.72651,50.5 5.01522,18.7 12.14429,45.475 15.84238,59.5 6.7238,25.5 6.7238,25.5 27.62955,44.71687 24.94753,22.93214 18.15276,22.82416 43.01762,0.68365 z"
       id="path1" />
  </g>
</svg>
