<?xml version="1.0" encoding="UTF-8" standalone="no"?>
<!-- Created with Inkscape (http://www.inkscape.org/) -->

<svg
   version="1.1"
   id="svg1"
   width="1024"
   height="1024"
   viewBox="0 0 1024 1024"
   sodipodi:docname="DelphiHelmetLine.svg"
   inkscape:version="1.4.2 (f4327f4, 2025-05-13)"
   xmlns:inkscape="http://www.inkscape.org/namespaces/inkscape"
   xmlns:sodipodi="http://sodipodi.sourceforge.net/DTD/sodipodi-0.dtd"
   xmlns="http://www.w3.org/2000/svg"
   xmlns:svg="http://www.w3.org/2000/svg">
  <defs
     id="defs1" />
  <sodipodi:namedview
     id="namedview1"
     pagecolor="#ffffff"
     bordercolor="#666666"
     borderopacity="1.0"
     inkscape:showpageshadow="2"
     inkscape:pageopacity="0.0"
     inkscape:pagecheckerboard="0"
     inkscape:deskcolor="#d1d1d1"
     inkscape:zoom="0.80585311"
     inkscape:cx="579.51008"
     inkscape:cy="587.57607"
     inkscape:window-width="5120"
     inkscape:window-height="1369"
     inkscape:window-x="-8"
     inkscape:window-y="-8"
     inkscape:window-maximized="1"
     inkscape:current-layer="g1" />
  <g
     inkscape:groupmode="layer"
     inkscape:label="Image"
     id="g1">
    <path
       style="fill:#000000;stroke-width:1.21722"
       d="m 465.82027,1018.7454 c -1.8755,-1.3701 -9.69922,-6.9111 -17.38597,-12.3133 -98.52629,-69.24215 -196.20732,-158.03913 -262.21949,-238.37071 -12.92,-15.72262 -12.92,-15.72262 -6.42789,-26.95307 20.46455,-35.40085 34.16059,-81.49351 34.16059,-114.96404 0,-11.71422 -10.89941,-52.65779 -30.40528,-114.21727 -4.31978,-13.63301 -7.85415,-25.78013 -7.85415,-26.99361 0,-1.89294 8.20532,-7.65623 28.88723,-20.28994 0.28734,-0.17553 2.15311,-8.54184 4.14611,-18.59181 19.46531,-98.15599 85.10238,-167.36128 188.27772,-198.51316 6.71189,-2.02651 12.20344,-4.06919 12.20344,-4.53925 0,-0.47006 -11.26797,-38.93536 -25.03993,-85.47845 -13.77197,-46.54306 -25.28219,-85.472452 -25.57828,-86.50974 -0.42324,-1.482722 11.20689,-7.113216 54.39417,-26.333824 30.21286,-13.446324 64.64794,-28.874455 76.52236,-34.284738 21.58986,-9.8368752 21.58986,-9.8368752 37.59979,-2.6894507 50.93985,22.7414237 137.44142,61.5466167 137.77062,61.8048287 0.21227,0.166492 -1.9804,8.325026 -4.87259,18.130077 -2.89218,9.805049 -13.92143,48.149557 -24.50943,85.210027 -10.58801,37.06044 -19.53973,68.19426 -19.89274,69.18629 -0.50552,1.42064 2.37587,2.70274 13.56919,6.03776 101.43353,30.22183 176.21819,113.18112 188.44262,209.04111 0.8765,6.87327 0.8765,6.87327 15.85267,16.28414 8.23689,5.17598 14.99624,10.10653 15.02081,10.95677 0.0603,2.09385 -14.24526,52.12895 -23.8006,83.24396 -12.5114,40.74074 -14.76944,51.31659 -13.78739,64.57504 2.84321,38.38478 13.00618,72.51451 31.35953,105.31295 8.02793,14.34636 8.02793,14.34636 -0.65319,25.26849 -62.7127,78.90181 -174.74741,180.65609 -276.94738,251.53432 -13.09973,9.085 -13.53962,9.0455 -12.49146,-1.123 1.01546,-9.8513 3.76227,-90.82205 3.10011,-91.38571 -0.25772,-0.21939 -9.92441,3.2058 -21.48155,7.6115 -25.22886,9.61754 -19.50043,9.61885 -44.41162,-0.0104 -11.41803,-4.41355 -20.99966,-8.02457 -21.2925,-8.02457 -0.29281,0 -0.29793,4.1693 -0.0118,9.26512 0.28657,5.09581 1.11849,23.16278 1.84867,40.14883 0.73019,16.98604 1.70256,35.30573 2.16084,40.71033 0.92525,10.9121 0.0813,11.8926 -6.25365,7.2643 z m -33.4379,-79.70053 c -1.1231,-18.44446 -7.48761,-110.59403 -11.88693,-172.10652 -1.8112,-25.32465 -4.2131,-60.41477 -5.33757,-77.97802 -1.12446,-17.56327 -2.1823,-32.04035 -2.35078,-32.1713 -0.16846,-0.13095 -11.28937,-3.35154 -24.71315,-7.15686 -70.59675,-20.01255 -98.92661,-44.28526 -104.99716,-89.96045 -0.90487,-6.80813 -0.90487,-6.80813 -16.14719,-13.31373 -15.07247,-6.43311 -15.20647,-6.52475 -12.02408,-8.22416 50.08612,-26.74621 45.12393,-24.96099 57.67688,-20.75009 40.66565,13.64135 123.19467,40.94764 141.78591,46.91253 26.85175,8.61525 27.29519,11.57292 14.80957,98.77776 -2.52179,17.61323 -4.57729,33.53237 -4.5678,35.37588 0.0156,3.0156 32.41972,38.54656 45.39825,49.77886 3.03688,2.62827 3.03688,2.62827 17.34295,-12.35348 7.86833,-8.23996 18.72106,-19.44874 24.11714,-24.90839 11.49529,-11.63068 11.28469,-8.11288 3.60784,-60.26363 -11.87748,-80.6867 -12.24698,-78.74595 16.73124,-87.8789 13.23014,-4.16969 52.83395,-16.84529 88.00853,-28.16802 63.95373,-20.58676 63.95373,-20.58676 74.53994,-14.79619 5.82239,3.18483 16.37457,8.72118 23.44927,12.303 15.82768,8.01335 15.85125,7.77188 -1.44244,14.78534 -14.15864,5.74201 -14.15864,5.74201 -17.58319,20.4822 -10.2715,44.21144 -42.26443,67.7628 -116.79247,85.97599 -15.57054,3.80511 -15.57054,3.80511 -15.8773,10.37748 -1.01306,21.70601 -4.50845,98.78837 -5.64524,124.49201 -1.303,29.46248 -4.95126,90.11038 -8.44451,140.38053 -2.00287,28.82251 -2.53435,26.8101 5.42466,20.54022 3.48329,-2.74404 14.34797,-11.23858 24.14369,-18.87672 66.57608,-51.91219 134.92995,-117.09289 178.44207,-170.1583 7.39821,-9.02251 7.39821,-9.02251 -0.57317,-28.0761 -13.98484,-33.42725 -19.50136,-54.1031 -23.4684,-87.95903 -2.6219,-22.37647 -0.52952,-32.44038 19.76391,-95.05902 8.97331,-27.68855 14.42126,-51.45715 12.14059,-52.96738 -27.46962,-18.18987 -54.26919,-28.37096 -209.39258,-79.5476 -31.20124,-10.29356 -63.48287,-20.95692 -71.73693,-23.69635 -15.75199,-5.22787 -91.88718,17.58127 -251.48937,75.34303 -21.30137,7.70918 -57.46948,25.33762 -60.4732,29.47479 -1.01616,1.3996 5.59426,25.19904 21.7151,78.18077 13.37718,43.96453 13.37718,43.96453 12.50772,57.44106 -2.09321,32.44417 -8.03995,57.2033 -22.05908,91.84235 -8.08648,19.98044 -10.25045,26.57006 -9.29553,28.30634 4.45562,8.10141 56.03131,63.47186 84.95246,91.20294 28.01304,26.86035 126.03434,109.27749 129.96716,109.27749 0.37358,0 0.27152,-6.69616 -0.22681,-14.88033 z M 328.0662,416.54586 c 41.3682,-13.99207 99.5641,-32.95079 153.52819,-50.01552 22.90281,-7.24241 29.08201,-9.60391 27.58271,-10.54127 -3.9509,-2.47005 -67.97051,-51.97015 -76.33583,-59.02301 -7.88507,-6.64798 -8.90257,-8.04468 -11.06061,-15.18282 -3.29003,-10.88231 -2.20256,-10.75618 -24.06635,-2.79138 -33.19984,12.09443 -48.2873,20.84941 -77.38572,44.90554 -44.33937,36.65608 -58.92567,60.02248 -74.0913,118.68989 -0.58094,2.24733 1.12206,1.83513 20.14816,-4.87678 11.43049,-4.03239 39.18683,-13.55648 61.68075,-21.16465 z m 447.63434,17.12912 c -18.16332,-71.7598 -78.01947,-132.35021 -152.77282,-154.64692 -19.06575,-5.68676 -17.53574,-5.94179 -20.38125,3.39728 -2.41979,7.94186 -2.41979,7.94186 -46.47782,41.81966 -44.05804,33.87783 -44.05804,33.87783 -36.42379,36.00306 45.94724,12.79088 196.74352,61.86124 245.10664,79.75974 14.53293,5.37843 13.99244,5.69105 10.94904,-6.33282 z M 540.61964,295.14806 c 15.15663,-11.48843 28.00292,-21.55118 28.54731,-22.36168 0.96737,-1.44022 21.67122,-65.77012 43.18798,-134.19127 5.92443,-18.83907 12.14146,-38.1649 13.81565,-42.946292 3.54364,-10.120379 5.99013,-7.847977 -22.37257,-20.780416 C 507.7112,31.056074 516.54425,32.041312 456.69707,58.460727 392.15592,86.95229 399.62995,82.168483 402.55964,93.111822 c 1.32287,4.941396 4.54718,17.322968 7.16515,27.514578 2.61797,10.19162 10.17344,35.71281 16.78998,56.71373 6.61651,21.00094 16.02184,51.07043 20.9007,66.82114 8.87065,28.63763 8.87065,28.63763 36.45142,50.21901 32.91303,25.75382 23.94876,25.63255 56.75275,0.76778 z"
       id="path1" />
    <path
       id="path2"
       style="baseline-shift:baseline;display:inline;overflow:visible;vector-effect:none;enable-background:accumulate;stop-color:#000000;stop-opacity:1;opacity:1"
       d="M 687.68945 109.56836 L 682.5957 121.38281 C 746.99162 142.90228 806.21631 176.68264 855.63086 221.36328 C 945.5286 302.64882 995.88867 412.70772 995.88867 527.39062 C 995.88867 642.07357 945.5286 752.13243 855.63086 833.41797 C 831.65741 855.09476 805.38954 874.24622 777.34375 890.67578 L 774.7207 892.21094 L 778.73438 892.21094 L 770.64648 909.10156 C 804.3738 890.66869 835.83986 868.53901 864.19922 842.89648 C 956.59419 759.35296 1008.6641 645.8158 1008.6641 527.39062 C 1008.6641 408.96548 956.59425 295.4303 864.19922 211.88672 C 813.67042 166.19857 753.30773 131.64063 687.68945 109.56836 z M 344.13867 109.78125 C 278.76077 131.8633 218.61783 166.34235 168.24805 211.88672 C 75.852957 295.43035 23.78125 408.9656 23.78125 527.39062 C 23.78125 645.8157 75.853019 759.3529 168.24805 842.89648 C 193.0088 865.28516 220.15773 884.96766 249.08594 901.88867 L 231.21289 875.6875 C 212.05301 862.90921 193.84399 848.81607 176.81445 833.41797 C 86.916663 752.13237 36.558595 642.07344 36.558594 527.39062 C 36.558595 412.70786 86.916662 302.64888 176.81445 221.36328 C 225.92788 176.95492 284.73215 143.31223 348.67188 121.77344 C 347.1697 117.84204 345.66083 113.85419 344.13867 109.78125 z " />
    <g
       id="path3"
       style="opacity:1" />
  </g>
</svg>
