<?xml version="1.0" encoding="UTF-8" standalone="no"?>
<!-- Created with Inkscape (http://www.inkscape.org/) -->

<svg
   width="128"
   height="128"
   viewBox="0 0 33.866666 33.866666"
   version="1.1"
   id="svg1"
   inkscape:version="1.4.2 (f4327f4, 2025-05-13)"
   sodipodi:docname="dproj_exe.svg"
   xmlns:inkscape="http://www.inkscape.org/namespaces/inkscape"
   xmlns:sodipodi="http://sodipodi.sourceforge.net/DTD/sodipodi-0.dtd"
   xmlns="http://www.w3.org/2000/svg"
   xmlns:svg="http://www.w3.org/2000/svg">
  <sodipodi:namedview
     id="namedview1"
     pagecolor="#ffffff"
     bordercolor="#000000"
     borderopacity="0.25"
     inkscape:showpageshadow="2"
     inkscape:pageopacity="0.0"
     inkscape:pagecheckerboard="0"
     inkscape:deskcolor="#d1d1d1"
     inkscape:document-units="mm"
     inkscape:zoom="8.3170034"
     inkscape:cx="63.664757"
     inkscape:cy="62.342165"
     inkscape:window-width="2560"
     inkscape:window-height="1369"
     inkscape:window-x="-8"
     inkscape:window-y="-8"
     inkscape:window-maximized="1"
     inkscape:current-layer="layer1" />
  <defs
     id="defs1" />
  <g
     inkscape:label="Ebene 1"
     inkscape:groupmode="layer"
     id="layer1">
    <path
       id="path1"
       style="fill:#000000;stroke-width:0.264583"
       d="M 16.933333 0.056844076 A 16.876446 16.876446 0 0 0 0.056844076 16.933333 A 16.876446 16.876446 0 0 0 16.933333 33.809823 A 16.876446 16.876446 0 0 0 33.809823 16.933333 A 16.876446 16.876446 0 0 0 16.933333 0.056844076 z M 30.340784 8.2062174 C 30.576297 8.2062174 30.7798 8.2874803 30.951082 8.4501302 C 31.129501 8.6026145 31.218766 8.8977092 31.218766 9.3348307 C 31.218766 9.751621 31.129501 10.041378 30.951082 10.204028 C 30.7798 10.366678 30.576297 10.447941 30.340784 10.447941 C 30.090997 10.447941 29.88058 10.366678 29.709298 10.204028 C 29.545152 10.041378 29.463318 9.751621 29.463318 9.3348307 C 29.463318 8.8977092 29.545152 8.6026145 29.709298 8.4501302 C 29.88058 8.2874803 30.090997 8.2062174 30.340784 8.2062174 z M 8.299235 8.2217204 L 9.9265259 8.2217204 L 9.9265259 19.81016 L 8.6847412 19.81016 L 8.3633138 18.727539 L 8.299235 18.727539 C 8.1493632 19.07317 7.9421442 19.368265 7.6780843 19.61224 C 7.4140244 19.846049 7.06811 19.963123 6.6399048 19.963123 C 5.9904602 19.963123 5.4623003 19.60226 5.0555054 18.880501 C 4.6487104 18.148577 4.4452067 17.075631 4.4452067 15.66261 C 4.4452067 14.229258 4.6524257 13.152008 5.0663574 12.430249 C 5.4802891 11.698325 6.0222767 11.332125 6.6931315 11.332125 C 7.1070632 11.332125 7.4428653 11.449199 7.6997884 11.683008 C 7.9567115 11.916817 8.1671291 12.206574 8.3312744 12.552205 L 8.3845011 12.552205 C 8.3630909 12.369224 8.3418326 12.115278 8.3204224 11.789978 C 8.3061489 11.454513 8.299235 11.14926 8.299235 10.874788 L 8.299235 8.2217204 z M 14.76499 11.332125 C 15.435845 11.332125 15.96772 11.698325 16.360242 12.430249 C 16.7599 13.152008 16.959688 14.2191 16.959688 15.632121 C 16.959688 17.055307 16.749271 18.133074 16.328202 18.864998 C 15.914271 19.596923 15.37868 19.963123 14.722099 19.963123 C 14.293894 19.963123 13.951178 19.856207 13.694255 19.642729 C 13.444468 19.419085 13.248395 19.175296 13.10566 18.91099 L 13.041581 18.91099 C 13.055855 19.093972 13.070199 19.307287 13.084473 19.551261 C 13.098746 19.785071 13.10566 20.028859 13.10566 20.283 L 13.10566 23.469885 L 11.489221 23.469885 L 11.489221 11.48457 L 12.805937 11.48457 L 13.030729 12.567192 L 13.10566 12.567192 C 13.262669 12.231726 13.469888 11.941969 13.726811 11.697994 C 13.983734 11.454019 14.329648 11.332125 14.76499 11.332125 z M 21.487577 11.332125 C 21.594629 11.332125 21.708867 11.342283 21.830192 11.362614 C 21.951517 11.382945 22.051411 11.403261 22.129915 11.423592 L 21.969718 13.573848 C 21.891214 13.543352 21.798234 13.523036 21.691182 13.51287 C 21.584131 13.492539 21.455548 13.482381 21.305676 13.482381 C 21.084437 13.482381 20.86339 13.548149 20.642151 13.680302 C 20.420912 13.812455 20.235468 14.031107 20.085596 14.336076 C 19.942861 14.641044 19.871139 15.058033 19.871139 15.586646 L 19.871139 19.81016 L 18.2547 19.81016 L 18.2547 11.48457 L 19.486149 11.48457 L 19.721277 12.887585 L 19.796208 12.887585 C 19.96749 12.46063 20.199682 12.094947 20.492289 11.789978 C 20.792033 11.48501 21.123603 11.332125 21.487577 11.332125 z M 25.405684 11.332125 C 25.955214 11.332125 26.440858 11.499988 26.861926 11.835453 C 27.282995 12.160753 27.614565 12.64351 27.857214 13.283944 C 28.099864 13.924378 28.221533 14.70705 28.221533 15.632121 C 28.221533 17.014645 27.964367 18.082254 27.450521 18.834509 C 26.943811 19.586765 26.251466 19.963123 25.373645 19.963123 C 24.824115 19.963123 24.335273 19.795259 23.907068 19.459794 C 23.485999 19.124329 23.154429 18.636235 22.91178 17.995801 C 22.66913 17.345201 22.547461 16.557192 22.547461 15.632121 C 22.547461 14.249597 22.800912 13.187325 23.307621 12.445235 C 23.821468 11.703145 24.520727 11.332125 25.405684 11.332125 z M 29.516545 11.48457 L 31.132983 11.48457 L 31.132983 20.709847 C 31.132983 21.218128 31.068692 21.681086 30.94023 22.097876 C 30.811769 22.514666 30.601351 22.845055 30.308744 23.08903 C 30.023274 23.34317 29.641757 23.469885 29.163595 23.469885 C 28.992312 23.469885 28.817498 23.44957 28.639079 23.408907 C 28.453523 23.37841 28.296251 23.337779 28.16779 23.286951 L 28.16779 21.472591 C 28.281978 21.523419 28.389303 21.558713 28.489217 21.579045 C 28.589132 21.609541 28.702854 21.625037 28.831315 21.625037 C 29.024007 21.625037 29.184995 21.538436 29.313456 21.365621 C 29.449055 21.192805 29.516545 20.852259 29.516545 20.343978 L 29.516545 11.48457 z M 25.384497 13.086023 C 24.963429 13.086023 24.660031 13.304159 24.474475 13.74128 C 24.288919 14.178402 24.196456 14.808706 24.196456 15.632121 C 24.196456 16.44537 24.288919 17.081012 24.474475 17.538464 C 24.660031 17.985752 24.967144 18.209224 25.395349 18.209224 C 25.809281 18.209224 26.108963 17.985752 26.294519 17.538464 C 26.480075 17.081012 26.572538 16.44537 26.572538 15.632121 C 26.572538 14.808706 26.480075 14.178402 26.294519 13.74128 C 26.108963 13.304159 25.805566 13.086023 25.384497 13.086023 z M 14.229622 13.161987 C 13.815691 13.161987 13.526637 13.344829 13.362492 13.710791 C 13.205483 14.076753 13.119934 14.631132 13.10566 15.373222 L 13.10566 15.617135 C 13.10566 16.420218 13.184296 17.035027 13.341305 17.461983 C 13.50545 17.888939 13.805132 18.102771 14.240474 18.102771 C 14.604449 18.102771 14.875443 17.888939 15.053861 17.461983 C 15.23228 17.035027 15.321545 16.414881 15.321545 15.601632 C 15.321545 13.975133 14.957571 13.161987 14.229622 13.161987 z M 7.19646 13.192476 C 6.846759 13.192476 6.57205 13.406308 6.3722209 13.833264 C 6.1795285 14.26022 6.0833496 14.87985 6.0833496 15.693099 C 6.0833496 16.506348 6.1795285 17.116337 6.3722209 17.522961 C 6.57205 17.919421 6.8504743 18.117757 7.207312 18.117757 C 7.642654 18.117757 7.9492504 17.939736 8.1276693 17.58394 C 8.3060881 17.217977 8.3990685 16.664116 8.4062052 15.922026 L 8.4062052 15.678113 C 8.4062052 14.875029 8.3206555 14.26022 8.1493734 13.833264 C 7.9780913 13.406308 7.660349 13.192476 7.19646 13.192476 z M 2.4432617 17.461983 C 2.6930481 17.461983 2.9071809 17.558741 3.0855998 17.751888 C 3.2711554 17.945035 3.3641357 18.275424 3.3641357 18.743042 C 3.3641357 19.190329 3.2711554 19.515381 3.0855998 19.718693 C 2.9071809 19.91184 2.6930481 20.008598 2.4432617 20.008598 C 2.1863386 20.008598 1.9652919 19.91184 1.7797363 19.718693 C 1.6013175 19.515381 1.5120524 19.190329 1.5120524 18.743042 C 1.5120524 18.275424 1.6013175 17.945035 1.7797363 17.751888 C 1.9652919 17.558741 2.1863386 17.461983 2.4432617 17.461983 z " />
  </g>
</svg>
