<?xml version="1.0" encoding="UTF-8" standalone="no"?>
<svg
   width="16"
   height="16"
   viewBox="0 0 16 16"
   fill="currentColor"
   version="1.1"
   id="svg1"
   sodipodi:docname="dproj.svg"
   inkscape:version="1.4.2 (f4327f4, 2025-05-13)"
   xmlns:inkscape="http://www.inkscape.org/namespaces/inkscape"
   xmlns:sodipodi="http://sodipodi.sourceforge.net/DTD/sodipodi-0.dtd"
   xmlns="http://www.w3.org/2000/svg"
   xmlns:svg="http://www.w3.org/2000/svg">
  <defs
     id="defs1" />
  <sodipodi:namedview
     id="namedview1"
     pagecolor="#ffffff"
     bordercolor="#666666"
     borderopacity="1.0"
     inkscape:showpageshadow="2"
     inkscape:pageopacity="0.0"
     inkscape:pagecheckerboard="0"
     inkscape:deskcolor="#d1d1d1"
     inkscape:zoom="72.9375"
     inkscape:cx="7.9931448"
     inkscape:cy="8"
     inkscape:window-width="2560"
     inkscape:window-height="1369"
     inkscape:window-x="-8"
     inkscape:window-y="1432"
     inkscape:window-maximized="1"
     inkscape:current-layer="svg1" />
  <path
     d="M9.1 4.4L8.6 2H7.4l-.5 2.4-.7.3-2-1.3-.9.8 1.3 2-.2.7-2.4.5v1.2l2.4.5.3.8-1.3 2 .8.8 2-1.3.8.3.4 2.3h1.2l.5-2.4.8-.3 2 1.3.8-.8-1.3-2 .3-.8 2.3-.4V7.4l-2.4-.5-.3-.8 1.3-2-.8-.8-2 1.3-.7-.2zM9.4 1l.5 2.4L12 2.1l2 2-1.4 2.1 2.4.4v2.8l-2.4.5L14 12l-2 2-2.1-1.4-.5 2.4H6.6l-.5-2.4L4 13.9l-2-2 1.4-2.1L1 9.4V6.6l2.4-.5L2.1 4l2-2 2.1 1.4.4-2.4h2.8zm.6 7c0 1.1-.9 2-2 2s-2-.9-2-2 .9-2 2-2 2 .9 2 2zM8 9c.6 0 1-.4 1-1s-.4-1-1-1-1 .4-1 1 .4 1 1 1z"
     id="path1"
     style="fill:#ff5555" />
</svg>
